<?xml version="1.0" encoding="UTF-8"?>
<!DOCTYPE svg PUBLIC "-//W3C//DTD SVG 1.1//EN" "http://www.w3.org/Graphics/SVG/1.1/DTD/svg11.dtd">
<svg version="1.1" xmlns="http://www.w3.org/2000/svg" xmlns:xlink="http://www.w3.org/1999/xlink" x="0" y="0" width="468" height="562" viewBox="0, 0, 468, 562">
  <g id="Layer_1">
    <path d="M17.102,214.373 C14.911,214.897 12.825,215.797 10.993,217.065 C9.149,218.309 7.542,219.92 6.396,221.82 C5.285,223.712 4.646,226.006 5.375,228.273 C4.741,227.285 4.434,226.046 4.488,224.829 C4.543,223.607 4.866,222.395 5.395,221.293 C6.447,219.072 8.179,217.244 10.172,215.862 C12.185,214.5 14.499,213.582 16.89,213.257 C19.273,212.899 21.718,213.134 23.939,213.896 C21.596,213.73 19.297,213.838 17.102,214.373 M56.386,197.243 C54.195,197.767 52.109,198.665 50.277,199.934 C48.434,201.179 46.826,202.79 45.681,204.689 C44.57,206.582 43.931,208.876 44.66,211.143 C44.026,210.154 43.719,208.918 43.773,207.697 C43.828,206.475 44.151,205.265 44.678,204.162 C45.732,201.943 47.464,200.113 49.458,198.732 C51.47,197.37 53.783,196.452 56.174,196.126 C58.559,195.769 61.002,196.004 63.223,196.766 C60.881,196.601 58.582,196.707 56.386,197.243 M70.583,125.809 C70.39,128.154 70.221,132.808 70.214,134.527 C64.368,143.292 39.521,147.385 35.998,147.924 L35.998,139.798 C48.643,138.865 64.758,132.278 70.583,125.809 M32.842,216.006 L35.322,155.045 C45.264,154.185 56.614,148.54 67.596,143.078 L69.433,142.165 L65.135,193.01 C57.993,192.142 50.48,192.29 43.74,198.626 C41.632,200.608 37.195,208.396 39.692,214.196 C41.581,218.578 46.83,220.544 55.302,220.049 C66.129,219.414 71.794,206.174 71.792,199.285 L78.739,115.708 L71.223,115.708 L71.117,115.885 C68.509,120.234 49.906,136.114 34.779,131.016 L34.691,130.985 L27.936,132.144 L26.161,209.743 C19.024,208.879 11.523,209.034 4.791,215.361 C2.683,217.344 -1.755,225.132 0.741,230.93 C2.438,234.871 6.854,236.861 13.882,236.861 C14.673,236.861 15.496,236.835 16.352,236.786 C27.18,236.149 32.843,222.909 32.842,216.006 M420.88,245.776 C418.612,246.319 416.452,247.249 414.554,248.562 C412.645,249.851 410.981,251.52 409.794,253.487 C408.644,255.448 407.982,257.822 408.737,260.17 C408.08,259.146 407.762,257.865 407.819,256.601 C407.875,255.337 408.209,254.083 408.757,252.94 C409.847,250.642 411.64,248.748 413.705,247.318 C415.79,245.907 418.185,244.957 420.662,244.62 C423.129,244.25 425.661,244.493 427.96,245.281 C425.535,245.111 423.155,245.22 420.88,245.776 M415.437,317.11 C418.194,329.449 419.595,342.089 419.815,354.744 C419.996,367.402 418.877,380.078 416.571,392.532 C414.186,404.971 410.599,417.181 405.827,428.906 C401.008,440.609 395.101,451.872 388.036,462.356 C381.014,472.868 372.898,482.626 363.909,491.462 C361.592,493.6 359.348,495.811 356.979,497.884 C354.564,499.905 352.202,501.983 349.75,503.952 C347.244,505.852 344.768,507.79 342.243,509.653 L334.437,514.924 C324.195,522.173 313.178,528.336 301.68,533.424 C290.156,538.455 278.119,542.333 265.811,545 C241.183,550.329 215.482,550.541 190.693,545.951 C165.933,541.198 142.079,531.627 121.084,517.694 C110.595,510.725 100.801,502.725 91.901,493.842 C83.048,484.912 75.034,475.158 68.139,464.674 L62.793,456.922 C61.12,454.266 59.521,451.559 57.879,448.875 C56.315,446.149 54.873,443.352 53.361,440.591 C51.911,437.797 50.626,434.92 49.249,432.084 C44.098,420.58 40.096,408.535 37.388,396.188 C34.631,383.85 33.23,371.211 33.011,358.557 C32.83,345.897 33.948,333.221 36.255,320.767 C38.639,308.329 42.226,296.12 47,284.393 C51.818,272.691 57.725,261.427 64.79,250.942 C71.811,240.431 79.927,230.674 88.916,221.838 C91.233,219.698 93.478,217.488 95.847,215.416 C98.261,213.394 100.624,211.315 103.075,209.348 C105.582,207.447 108.057,205.511 110.583,203.646 L118.388,198.376 C128.63,191.127 139.647,184.964 151.146,179.876 C162.67,174.845 174.707,170.967 187.014,168.3 C211.642,162.971 237.344,162.758 262.132,167.349 C286.893,172.102 310.747,181.673 331.74,195.605 C342.23,202.575 352.025,210.574 360.924,219.458 C369.778,228.387 377.792,238.141 384.686,248.625 L390.033,256.378 C391.707,259.034 393.304,261.74 394.946,264.424 C396.51,267.149 397.953,269.947 399.464,272.71 C400.915,275.503 402.2,278.38 403.577,281.216 C408.728,292.719 412.729,304.764 415.437,317.11 M110.272,157.315 C107.964,158.149 105.938,159.642 104.376,161.527 C102.792,163.393 101.633,165.646 101.047,168.043 C100.49,170.439 100.535,173.038 101.733,175.41 C100.801,174.466 100.172,173.211 99.822,171.889 C99.486,170.558 99.422,169.154 99.601,167.786 C99.943,165.038 101.167,162.444 102.931,160.31 C103.834,159.26 104.871,158.314 106.038,157.551 C107.215,156.809 108.496,156.209 109.853,155.9 C112.56,155.225 115.427,155.643 117.77,156.843 C115.168,156.394 112.589,156.474 110.272,157.315 M135.296,88.622 C135.296,88.622 146.927,86.533 152.869,96.063 C157.352,103.252 156.438,116.843 145.926,120.41 L135.296,88.622 z M106.963,107.395 C100.383,93.449 107.63,76.299 119.023,67.531 C119.023,67.531 122.218,75.521 124.151,80.937 C107.963,91.528 114.147,111.709 125.041,113.755 C116.865,106.338 122.445,92.61 128.376,91.544 L138.113,124.374 C118.298,127.693 109.586,112.953 106.963,107.395 M102.095,121.634 C98.605,118.172 95.881,113.92 94.169,109.279 C92.483,104.634 91.839,99.581 92.489,94.689 C93.106,89.796 94.987,85.122 97.783,81.19 C95.663,85.524 94.273,90.139 93.951,94.834 C93.627,99.522 94.317,104.245 95.943,108.631 C97.535,113.032 100.035,117.098 103.165,120.618 C106.311,124.13 110.115,127.083 114.419,129.268 C109.807,127.812 105.567,125.099 102.095,121.634 M113.829,32.365 C113.121,27.529 116.158,23.941 121.022,23.388 C125.885,22.835 128.04,28.94 128.224,34.782 C128.523,44.213 121.72,52.238 121.72,52.238 C121.72,52.238 114.537,37.199 113.829,32.365 M110.561,22.662 C109.262,24.684 108.43,27.001 108.028,29.388 C107.913,29.983 107.898,30.593 107.827,31.197 C107.782,31.804 107.837,32.411 107.83,33.023 C107.856,33.632 107.958,34.236 108.019,34.849 C108.144,35.448 108.306,36.043 108.436,36.654 C108.211,36.079 107.964,35.502 107.777,34.906 C107.644,34.298 107.469,33.69 107.372,33.068 C107.325,32.444 107.233,31.815 107.233,31.186 C107.261,30.558 107.234,29.922 107.311,29.295 C107.554,26.775 108.406,24.311 109.764,22.155 C111.132,20.014 113.064,18.172 115.402,17.127 C116.565,16.6 117.805,16.271 119.055,16.124 C119.687,16.114 120.314,16.025 120.938,16.082 C121.562,16.146 122.181,16.223 122.792,16.307 C120.312,16.206 117.844,16.643 115.722,17.78 C113.605,18.91 111.839,20.632 110.561,22.662 M126.366,81.45 C129.358,80.16 132.619,79.498 135.863,79.558 C137.478,79.656 139.096,79.728 140.67,80.095 C142.261,80.353 143.773,80.934 145.29,81.424 C143.709,81.138 142.189,80.652 140.595,80.553 C139.032,80.282 137.442,80.294 135.871,80.285 C132.722,80.396 129.605,81.061 126.746,82.315 C123.879,83.555 121.278,85.414 119.245,87.792 C118.773,88.41 118.295,89.036 117.878,89.695 C117.532,90.393 117.066,91.045 116.84,91.799 L116.411,92.899 L116.158,94.053 L116.03,94.634 C116.011,94.83 116.01,95.028 115.997,95.226 L115.926,96.421 L115.856,95.221 C115.848,95.02 115.833,94.817 115.834,94.616 L115.91,94.017 L116.067,92.81 L116.407,91.643 C116.593,90.842 117.039,90.149 117.362,89.4 C117.757,88.692 118.218,88.014 118.678,87.342 C120.665,84.743 123.389,82.762 126.366,81.45 M273.65,107.128 C270.805,107.807 268.096,108.975 265.716,110.621 C263.323,112.237 261.235,114.329 259.748,116.797 C258.306,119.256 257.476,122.234 258.421,125.178 C257.599,123.894 257.2,122.287 257.27,120.704 C257.341,119.117 257.761,117.544 258.447,116.112 C259.813,113.229 262.062,110.853 264.651,109.061 C265.964,108.184 267.363,107.438 268.827,106.859 C270.3,106.306 271.823,105.881 273.375,105.677 C276.47,105.213 279.644,105.518 282.529,106.506 C279.487,106.293 276.5,106.431 273.65,107.128 M292.086,14.363 C291.834,17.408 291.616,23.451 291.607,25.683 C284.015,37.067 251.75,42.381 247.173,43.082 L247.173,32.53 C263.596,31.318 284.521,22.764 292.086,14.363 M213.636,131.306 C214.949,130.43 216.348,129.684 217.813,129.105 C219.285,128.552 220.808,128.127 222.361,127.923 C225.456,127.458 228.63,127.764 231.513,128.752 C228.472,128.539 225.486,128.677 222.634,129.372 C219.791,130.054 217.082,131.22 214.702,132.868 C212.309,134.483 210.22,136.576 208.733,139.042 C207.291,141.501 206.46,144.479 207.406,147.424 C206.583,146.139 206.185,144.533 206.256,142.949 C206.326,141.362 206.747,139.79 207.432,138.357 C208.798,135.475 211.047,133.099 213.636,131.306 M350.534,186.395 C351.9,183.512 354.149,181.136 356.738,179.344 C358.051,178.467 359.45,177.722 360.914,177.142 C362.385,176.59 363.91,176.164 365.461,175.96 C368.557,175.496 371.731,175.801 374.616,176.789 C371.574,176.576 368.587,176.714 365.737,177.411 C362.892,178.09 360.182,179.258 357.803,180.905 C355.41,182.521 353.322,184.613 351.834,187.079 C350.392,189.539 349.562,192.516 350.508,195.461 C349.685,194.177 349.287,192.57 349.357,190.986 C349.428,189.4 349.848,187.827 350.534,186.395 M466.974,196.844 C464.562,179.434 440.336,173.725 433.929,153.747 L429.657,153.747 L431.667,241.26 C423.218,240.193 415.993,240.757 409.428,246.929 C407.568,248.677 404.591,253.953 404.603,258.854 C401.465,253.155 398.039,247.55 394.295,242.066 C385.064,228.54 374.48,216.491 362.858,205.953 C363.867,205.954 364.921,205.926 366.038,205.86 C379.431,205.072 385.881,192.089 385.881,182.62 L385.881,95.249 C414.873,102.971 424.327,135.744 389.505,163.161 L391.632,165.917 C412.077,157.763 427.076,141.567 423.54,116.048 C420.515,94.217 390.136,87.057 382.1,62.004 L376.743,62.004 L379.264,171.747 C368.667,170.408 359.607,171.117 351.375,178.855 C349.292,180.813 346.087,186.299 345.435,191.827 C312.371,167.953 273.071,154.836 233.028,153.499 C239.657,147.532 243.077,137.602 243.077,131.492 L246.295,52.33 C259.206,51.212 273.946,43.882 288.206,36.789 L290.592,35.603 L285.012,101.63 C275.733,100.504 265.981,100.697 257.229,108.923 C254.492,111.496 248.729,121.61 251.972,129.141 C254.422,134.833 261.25,137.392 272.243,136.744 C286.303,135.916 293.658,118.725 293.657,109.779 L302.677,1.246 L292.917,1.246 L292.78,1.474 C289.393,7.124 265.226,27.744 245.591,21.123 L245.478,21.085 L236.705,22.589 L234.4,123.36 C225.133,122.237 215.389,122.438 206.648,130.655 C203.911,133.229 198.147,143.343 201.391,150.874 C202.012,152.317 202.925,153.553 204.105,154.592 C185.47,156.633 166.963,161.274 149.133,168.623 C151.424,163.895 152.92,158.376 152.941,152.128 C152.98,141.636 148.724,128.633 148.724,128.633 C160.659,122.888 167.275,107.132 163.713,95.765 C160.173,84.469 151.008,77.156 131.978,78.171 L125.083,61.16 C125.083,61.16 136.529,47.338 136.365,34.401 C136.205,21.463 128.594,12.504 119.437,13.667 C110.281,14.831 104.635,21.937 104.878,30.209 C105.081,37.137 108.176,43.905 115.545,58.189 C97.191,69.65 84.344,91.045 91.509,110.892 C98.517,130.297 117.563,138.309 141.746,132.126 C149.058,156.233 141.275,169.126 135.626,174.783 C132.113,176.541 128.63,178.398 125.189,180.379 C121.332,181.14 117.607,180.723 116.919,177.966 C122.336,176.033 125.604,170.163 123.38,162.239 C121.156,154.313 115.776,152.877 111.943,152.926 C106.441,152.995 93.931,160.482 98.38,174.571 C100.831,182.328 107.164,186.034 113.677,187.539 C113.061,187.95 112.442,188.349 111.83,188.767 C19.11,252.049 -4.753,378.514 58.529,471.232 C121.812,563.953 248.277,587.815 340.995,524.532 C425.874,466.602 453.035,355.729 408.478,266.262 C411.032,267.9 415.047,268.82 421.121,268.463 C431.8,267.834 436.945,257.48 436.945,249.93 L436.945,180.259 C460.063,186.415 467.602,212.55 439.834,234.413 L441.53,236.611 C457.833,230.109 469.793,217.193 466.974,196.844 M230.361,353.956 C231.848,356.136 231.287,359.109 229.107,360.597 C226.927,362.085 223.953,361.524 222.466,359.345 C220.978,357.164 221.539,354.191 223.719,352.703 C225.898,351.215 228.872,351.774 230.361,353.956 M262.489,409.508 C233.297,429.434 193.479,421.92 173.553,392.726 C153.63,363.534 161.143,323.716 190.335,303.791 C219.529,283.866 259.346,291.38 279.27,320.572 C299.196,349.765 291.682,389.584 262.489,409.508 M273.9,284.043 C264.387,277.84 253.643,273.55 242.487,271.464 C231.331,269.379 219.769,269.5 208.673,271.844 C197.572,274.173 186.961,278.741 177.608,285.143 C168.259,291.553 160.173,299.791 153.999,309.288 C147.813,318.777 143.533,329.492 141.454,340.618 C139.374,351.745 139.495,363.274 141.833,374.342 C144.154,385.414 148.714,395.993 155.095,405.326 C161.455,414.672 169.65,422.771 179.114,428.968 C188.568,435.179 199.261,439.493 210.381,441.61 C221.501,443.727 233.04,443.648 244.128,441.345 C255.223,439.058 265.843,434.528 275.217,428.157 C284.587,421.78 292.71,413.564 298.924,404.075 C305.15,394.596 309.476,383.874 311.6,372.724 C313.723,361.575 313.642,350.006 311.333,338.887 C309.039,327.763 304.498,317.115 298.111,307.714 C291.684,298.341 283.423,290.232 273.9,284.043 M351.048,491.467 C348.744,493.397 346.484,495.377 344.141,497.253 C341.749,499.067 339.38,500.91 336.967,502.685 C336.849,502.765 329.633,507.632 329.51,507.705 C348.861,493.586 365.48,475.981 378.25,455.958 C384.598,445.927 390.071,435.346 394.396,424.306 C398.768,413.289 402.095,401.859 404.269,390.211 C406.49,378.602 407.549,366.777 407.504,354.955 C407.503,354.251 407.499,353.547 407.491,352.843 C407.353,341.724 406.146,330.621 404.036,319.689 C403.763,318.295 403.473,316.903 403.168,315.515 C398.384,293.771 389.703,272.849 377.666,253.902 C377.602,253.785 382.395,260.716 382.328,260.6 C384.548,263.913 386.501,267.438 388.253,271.003 C389.695,273.561 391.022,276.184 392.414,278.778 C393.749,281.397 394.931,284.093 396.197,286.752 C400.935,297.535 404.608,308.814 407.086,320.368 C407.72,323.273 408.276,326.195 408.755,329.131 C410.179,337.863 410.924,346.715 411.056,355.572 C411.198,367.41 410.138,379.264 407.982,390.911 C405.705,402.787 402.279,414.444 397.718,425.641 C393.114,436.812 387.472,447.566 380.72,457.572 C374.011,467.603 366.258,476.915 357.669,485.341 C355.459,487.385 353.311,489.489 351.048,491.467 M370.934,451.174 C376.969,441.621 382.176,431.551 386.289,421.041 C390.448,410.555 393.614,399.675 395.68,388.59 C397.79,377.574 398.797,366.353 398.764,355.137 C398.764,354.468 398.76,353.799 398.752,353.13 C398.632,342.579 397.498,332.043 395.512,321.666 C395.255,320.343 394.983,319.021 394.696,317.704 C390.192,297.066 382.004,277.198 370.645,259.179 C370.518,258.944 374.76,265.053 374.623,264.822 C377.391,268.794 379.699,273.138 381.56,277.583 C382.878,279.972 384.093,282.422 385.363,284.843 C386.583,287.29 387.664,289.806 388.817,292.288 C393.142,302.351 396.486,312.864 398.735,323.627 C399.311,326.332 399.814,329.053 400.248,331.786 C401.535,339.919 402.198,348.157 402.297,356.401 C402.399,367.42 401.4,378.45 399.394,389.29 C397.221,400.605 393.958,411.712 389.612,422.375 C385.219,433.017 379.843,443.261 373.405,452.787 C367.01,462.339 359.619,471.203 351.43,479.22 C349.327,481.168 347.275,483.168 345.118,485.05 C342.922,486.89 340.766,488.769 338.532,490.553 C336.253,492.28 333.995,494.032 331.692,495.717 C331.456,495.877 324.829,500.34 324.583,500.485 C342.987,487.009 358.792,470.241 370.934,451.174 M363.62,446.388 C369.342,437.315 374.282,427.754 378.181,417.775 C382.126,407.82 385.132,397.493 387.092,386.97 C389.09,376.547 390.047,365.931 390.024,355.315 C390.024,354.684 390.021,354.051 390.014,353.418 C389.912,343.435 388.85,333.466 386.989,323.642 C386.748,322.391 386.492,321.141 386.224,319.892 C382.001,300.36 374.304,281.549 363.625,264.455 C363.433,264.103 367.124,269.39 366.918,269.044 C370.234,273.674 372.895,278.838 374.868,284.162 C376.062,286.384 377.165,288.659 378.312,290.91 C379.417,293.184 380.396,295.518 381.438,297.825 C385.35,307.167 388.363,316.914 390.383,326.885 C390.9,329.391 391.352,331.912 391.741,334.442 C392.89,341.975 393.47,349.6 393.539,357.23 C393.601,367.429 392.661,377.636 390.805,387.67 C388.74,398.422 385.638,408.977 381.504,419.11 C377.326,429.221 372.216,438.955 366.089,448.002 C360.008,457.075 352.979,465.492 345.192,473.099 C343.193,474.95 341.239,476.847 339.187,478.633 C337.103,480.382 335.047,482.163 332.923,483.852 C330.757,485.495 328.609,487.153 326.417,488.748 C326.061,488.987 320.023,493.049 319.657,493.266 C337.112,480.432 352.103,464.5 363.62,446.388 M356.304,441.604 C361.713,433.01 366.389,423.959 370.074,414.511 C373.807,405.086 376.649,395.31 378.503,385.349 C380.389,375.519 381.295,365.508 381.284,355.496 C381.285,354.9 381.282,354.304 381.276,353.706 C381.192,344.29 380.202,334.889 378.464,325.619 C378.24,324.437 378.001,323.258 377.751,322.08 C373.808,303.654 366.604,285.899 356.604,269.732 C356.349,269.262 359.487,273.728 359.213,273.266 C363.076,278.552 366.092,284.536 368.174,290.741 C369.246,292.796 370.235,294.897 371.261,296.977 C372.25,299.078 373.127,301.231 374.059,303.361 C377.557,311.983 380.242,320.965 382.033,330.142 C382.491,332.449 382.89,334.769 383.233,337.099 C384.245,344.03 384.745,351.043 384.78,358.059 C384.802,367.436 383.922,376.82 382.217,386.05 C380.258,396.239 377.318,406.243 373.397,415.846 C369.432,425.426 364.587,434.648 358.775,443.219 C353.006,451.81 346.338,459.78 338.953,466.978 C337.06,468.735 335.203,470.525 333.256,472.216 C331.282,473.874 329.331,475.556 327.315,477.153 C325.262,478.709 323.222,480.274 321.141,481.779 C320.667,482.099 315.218,485.757 314.729,486.048 C331.237,473.854 345.416,458.758 356.304,441.604 M348.989,436.819 C354.084,428.703 358.495,420.162 361.967,411.246 C365.486,402.35 368.167,393.128 369.915,383.727 C371.689,374.492 372.545,365.084 372.543,355.678 C372.544,355.116 372.542,354.556 372.538,353.995 C372.471,345.147 371.553,336.31 369.941,327.598 C369.733,326.484 369.512,325.376 369.278,324.267 C365.619,306.948 358.905,290.251 349.583,275.009 C349.265,274.42 351.85,278.067 351.508,277.489 C355.919,283.432 359.29,290.235 361.482,297.321 C362.43,299.208 363.305,301.135 364.21,303.044 C365.084,304.972 365.86,306.944 366.678,308.898 C369.764,316.801 372.119,325.016 373.681,333.399 C374.081,335.508 374.428,337.627 374.724,339.755 C375.599,346.085 376.018,352.485 376.021,358.888 C376.004,367.445 375.184,376.006 373.628,384.428 C371.776,394.057 368.997,403.508 365.29,412.58 C361.538,421.629 356.958,430.344 351.458,438.433 C346.003,446.545 339.699,454.069 332.713,460.857 C330.927,462.518 329.167,464.204 327.326,465.8 C325.461,467.366 323.613,468.948 321.705,470.454 C319.767,471.923 317.835,473.395 315.866,474.811 C315.273,475.21 310.414,478.465 309.802,478.829 C325.362,467.277 338.727,453.018 348.989,436.819 M341.673,432.036 C346.457,424.398 350.601,416.366 353.859,407.98 C357.165,399.616 359.686,390.944 361.327,382.106 C362.989,373.464 363.794,364.661 363.802,355.857 C363.805,355.333 363.802,354.807 363.799,354.283 C363.75,346.003 362.905,337.732 361.417,329.574 C361.225,328.533 361.022,327.494 360.807,326.457 C357.426,310.243 351.205,294.601 342.564,280.285 C342.181,279.579 344.214,282.403 343.803,281.712 C348.761,288.312 352.487,295.933 354.788,303.9 C355.614,305.62 356.375,307.372 357.16,309.111 C357.917,310.866 358.592,312.659 359.3,314.435 C361.972,321.615 363.998,329.065 365.33,336.658 C365.671,338.567 365.965,340.485 366.216,342.411 C366.955,348.14 367.292,353.929 367.262,359.717 C367.206,367.453 366.445,375.191 365.04,382.809 C363.293,391.874 360.675,400.772 357.182,409.315 C353.644,417.833 349.331,426.038 344.144,433.649 C339.001,441.281 333.059,448.356 326.474,454.736 C324.793,456.302 323.129,457.883 321.396,459.382 C319.641,460.858 317.895,462.341 316.096,463.756 C314.272,465.138 312.449,466.516 310.59,467.843 C309.88,468.321 305.61,471.174 304.875,471.61 C319.488,460.7 332.039,447.277 341.673,432.036 M299.948,464.391 C313.612,454.123 325.351,441.537 334.358,427.251 C338.829,420.093 342.708,412.57 345.752,404.714 C348.844,396.883 351.204,388.762 352.738,380.485 C354.289,372.436 355.043,364.238 355.063,356.037 C355.065,355.548 355.065,355.059 355.061,354.57 C355.03,346.859 354.257,339.155 352.892,331.553 C352.717,330.581 352.531,329.613 352.335,328.644 C349.236,313.538 343.506,298.95 335.543,285.562 C335.096,284.739 336.579,286.741 336.098,285.934 C341.603,293.192 345.682,301.633 348.095,310.479 C348.797,312.032 349.446,313.61 350.109,315.178 C350.75,316.76 351.323,318.373 351.92,319.971 C354.179,326.432 355.875,333.115 356.979,339.915 C357.26,341.626 357.504,343.343 357.709,345.066 C358.31,350.194 358.563,355.372 358.503,360.546 C358.408,367.462 357.707,374.377 356.452,381.188 C354.811,389.692 352.355,398.04 349.075,406.05 C345.75,414.037 341.703,421.73 336.829,428.865 C332,436.017 326.419,442.644 320.235,448.615 C318.661,450.085 317.093,451.561 315.465,452.966 C313.821,454.35 312.177,455.734 310.487,457.056 C308.777,458.351 307.063,459.638 305.315,460.874 C304.486,461.433 300.805,463.881 299.948,464.391 M327.043,422.467 C331.201,415.786 334.812,408.773 337.645,401.45 C340.522,394.148 342.721,386.58 344.15,378.866 C345.588,371.409 346.292,363.814 346.323,356.218 C346.326,355.765 346.326,355.311 346.323,354.859 C346.31,347.715 345.609,340.578 344.37,333.529 C344.209,332.629 344.041,331.73 343.863,330.833 C341.043,316.832 335.806,303.302 328.523,290.838 C328.012,289.898 328.941,291.079 328.394,290.156 C334.447,298.071 338.88,307.331 341.402,317.059 C341.98,318.442 342.515,319.848 343.058,321.246 C343.584,322.652 344.055,324.086 344.541,325.508 C346.385,331.246 347.753,337.166 348.627,343.173 C348.851,344.684 349.042,346.202 349.202,347.724 C349.666,352.25 349.837,356.812 349.745,361.375 C349.61,367.471 348.968,373.562 347.863,379.567 C346.33,387.509 344.035,395.306 340.968,402.783 C337.857,410.241 334.075,417.427 329.513,424.08 C324.998,430.752 319.779,436.934 313.996,442.493 C312.527,443.868 311.057,445.24 309.534,446.547 C308,447.843 306.459,449.128 304.878,450.356 C303.282,451.566 301.675,452.76 300.04,453.905 C299.092,454.543 296,456.59 295.021,457.173 C307.738,447.546 318.661,435.795 327.043,422.467 M290.094,449.954 C301.862,440.969 311.974,430.056 319.727,417.683 C323.572,411.481 326.919,404.978 329.538,398.184 C332.203,391.414 334.239,384.397 335.56,377.246 C336.888,370.382 337.542,363.391 337.583,356.398 C337.585,355.981 337.586,355.564 337.584,355.147 C337.589,348.571 336.961,342 335.845,335.508 C335.702,334.677 335.549,333.848 335.39,333.021 C332.853,320.127 328.107,307.652 321.501,296.115 C320.928,295.057 321.305,295.417 320.689,294.377 C327.288,302.952 332.078,313.031 334.709,323.639 C335.165,324.853 335.585,326.085 336.007,327.312 C336.418,328.547 336.787,329.799 337.162,331.045 C338.592,336.064 339.63,341.215 340.276,346.432 C340.441,347.743 340.58,349.06 340.694,350.379 C341.021,354.306 341.112,358.257 340.986,362.204 C340.811,367.479 340.229,372.748 339.275,377.946 C337.848,385.326 335.713,392.57 332.861,399.519 C329.962,406.445 326.446,413.121 322.198,419.296 C317.996,425.488 313.14,431.222 307.756,436.373 C306.394,437.653 305.021,438.919 303.604,440.132 C302.179,441.335 300.742,442.52 299.269,443.656 C297.786,444.78 296.29,445.88 294.764,446.937 C293.699,447.653 291.196,449.3 290.094,449.954 M285.167,442.734 C295.988,434.392 305.286,424.315 312.413,412.897 C315.942,407.175 319.026,401.183 321.431,394.919 C323.882,388.679 325.757,382.215 326.972,375.625 C328.188,369.354 328.791,362.969 328.842,356.577 C328.846,356.198 328.847,355.816 328.846,355.435 C328.87,349.427 328.313,343.423 327.322,337.484 C327.195,336.725 327.06,335.967 326.918,335.209 C324.663,323.422 320.407,312.003 314.482,301.392 C313.844,300.216 313.668,299.754 312.983,298.6 C320.131,307.831 325.274,318.729 328.016,330.217 C328.348,331.266 328.657,332.323 328.957,333.381 C329.252,334.439 329.519,335.512 329.782,336.581 C330.8,340.88 331.508,345.266 331.925,349.688 C332.031,350.803 332.118,351.918 332.186,353.035 C332.375,356.36 332.385,359.7 332.227,363.032 C332.013,367.487 331.491,371.934 330.686,376.325 C329.365,383.143 327.393,389.836 324.753,396.254 C322.069,402.649 318.817,408.813 314.882,414.512 C310.994,420.225 306.5,425.511 301.518,430.252 C300.261,431.435 298.985,432.598 297.673,433.715 C296.359,434.827 295.025,435.913 293.66,436.957 C292.291,437.993 290.903,439.002 289.488,439.969 C288.305,440.766 286.391,442.008 285.167,442.734 M263.917,444.733 C258.174,447.241 252.177,449.173 246.044,450.503 C233.772,453.158 220.967,453.265 208.614,450.976 C196.276,448.608 184.39,443.84 173.928,436.895 C168.703,433.424 163.82,429.438 159.386,425.011 C154.973,420.562 151.008,415.682 147.546,410.477 C139.852,400.589 134.353,388.871 131.502,376.503 C130.033,370.322 129.308,363.97 129.147,357.607 C129.026,351.241 129.585,344.862 130.726,338.595 C131.943,332.339 133.752,326.197 136.18,320.31 C138.649,314.446 141.637,308.79 145.258,303.573 C148.84,298.332 152.978,293.486 157.568,289.148 C162.159,284.811 167.2,280.984 172.584,277.783 C177.706,274.199 183.177,271.1 188.908,268.566 C194.651,266.058 200.648,264.126 206.781,262.796 C219.053,260.142 231.86,260.036 244.21,262.322 C256.549,264.692 268.435,269.461 278.897,276.403 C284.124,279.876 289.004,283.861 293.438,288.29 C297.851,292.739 301.817,297.618 305.279,302.822 C312.974,312.711 318.472,324.428 321.324,336.797 C322.792,342.976 323.517,349.329 323.679,355.692 C323.799,362.059 323.241,368.435 322.098,374.705 C320.883,380.96 319.072,387.101 316.646,392.989 C314.175,398.854 311.189,404.509 307.568,409.726 C300.404,420.208 291.012,429.116 280.24,435.516 C275.12,439.1 269.649,442.199 263.917,444.733 M130.878,400.058 C128.287,394.638 126.25,388.933 124.809,383.082 C124.477,382.035 124.168,380.976 123.869,379.92 C123.573,378.859 123.305,377.789 123.043,376.719 C122.024,372.42 121.317,368.034 120.9,363.611 C120.794,362.497 120.708,361.381 120.639,360.264 C120.449,356.939 120.441,353.6 120.599,350.267 C120.813,345.811 121.334,341.366 122.138,336.975 C123.459,330.156 125.433,323.464 128.072,317.046 C130.758,310.649 134.008,304.485 137.942,298.788 C141.836,293.068 146.337,287.775 151.327,283.029 C152.583,281.847 153.857,280.688 155.168,279.572 C156.481,278.462 157.813,277.377 159.177,276.335 C160.543,275.299 161.93,274.292 163.342,273.327 C164.524,272.532 166.436,271.292 167.658,270.565 C162.247,274.737 157.218,279.341 152.65,284.331 C148.082,289.32 143.977,294.693 140.413,300.402 C136.882,306.125 133.799,312.118 131.395,318.381 C128.943,324.619 127.068,331.086 125.853,337.675 C124.578,344.252 123.976,350.958 123.978,357.662 C123.937,364.371 124.618,371.075 125.823,377.69 C128.299,390.922 133.288,403.694 140.328,415.404 C136.82,410.895 133.328,405.266 130.878,400.058 M124.068,405.744 C121.57,400.6 119.578,395.195 118.117,389.661 C117.661,388.444 117.239,387.215 116.817,385.987 C116.407,384.754 116.038,383.502 115.664,382.255 C114.233,377.235 113.195,372.084 112.549,366.869 C112.385,365.557 112.246,364.239 112.132,362.919 C111.805,358.994 111.714,355.042 111.839,351.097 C112.015,345.82 112.596,340.552 113.551,335.353 C114.978,327.975 117.112,320.729 119.965,313.78 C122.863,306.854 126.38,300.179 130.627,294.004 C134.834,287.804 139.695,282.065 145.085,276.91 C146.447,275.631 147.819,274.368 149.235,273.155 C150.659,271.955 152.095,270.77 153.567,269.636 C155.048,268.514 156.542,267.414 158.067,266.359 C159.13,265.643 161.631,263.999 162.731,263.347 C156.846,267.837 151.377,272.812 146.408,278.211 C141.441,283.609 136.974,289.431 133.097,295.618 C129.254,301.819 125.905,308.321 123.287,315.115 C120.623,321.887 118.586,328.902 117.265,336.053 C115.883,343.195 115.231,350.472 115.238,357.748 C115.203,365.029 115.945,372.306 117.269,379.481 C119.978,393.83 125.42,407.679 133.108,420.331 C129.952,416.274 126.274,410.433 124.068,405.744 M117.26,411.431 C114.853,406.563 112.904,401.458 111.423,396.24 C110.845,394.857 110.309,393.451 109.767,392.054 C109.24,390.646 108.77,389.215 108.285,387.792 C106.44,382.052 105.072,376.135 104.198,370.126 C103.975,368.615 103.783,367.097 103.624,365.576 C103.16,361.05 102.987,356.485 103.081,351.926 C103.216,345.829 103.858,339.737 104.962,333.732 C106.496,325.791 108.791,317.994 111.858,310.515 C114.969,303.059 118.75,295.873 123.313,289.219 C127.831,282.541 133.055,276.355 138.845,270.79 C140.313,269.418 141.781,268.048 143.304,266.741 C144.837,265.448 146.376,264.165 147.957,262.937 C149.551,261.729 151.156,260.537 152.79,259.391 C153.735,258.755 156.826,256.708 157.805,256.127 C151.445,260.941 145.537,266.285 140.167,272.092 C134.8,277.898 129.973,284.168 125.782,290.832 C121.625,297.513 118.012,304.525 115.18,311.85 C112.302,319.151 110.104,326.719 108.675,334.434 C107.189,342.137 106.486,349.985 106.499,357.834 C106.469,365.687 107.272,373.535 108.711,381.271 C111.658,396.739 117.553,411.663 125.891,425.259 C123.084,421.651 119.221,415.598 117.26,411.431 M110.451,417.117 C108.136,412.526 106.231,407.721 104.729,402.82 C104.028,401.269 103.379,399.689 102.716,398.121 C102.074,396.54 101.502,394.928 100.905,393.328 C98.647,386.867 96.95,380.184 95.847,373.385 C95.565,371.674 95.321,369.956 95.116,368.232 C94.515,363.104 94.261,357.929 94.322,352.755 C94.417,345.838 95.119,338.923 96.375,332.111 C98.014,323.607 100.471,315.261 103.75,307.25 C107.075,299.262 111.124,291.567 115.997,284.434 C120.829,277.277 126.414,270.644 132.603,264.672 C134.177,263.203 135.744,261.727 137.371,260.325 C139.015,258.942 140.657,257.558 142.346,256.238 C144.055,254.943 145.768,253.658 147.514,252.423 C148.342,251.866 152.021,249.416 152.877,248.908 C146.044,254.042 139.695,259.755 133.926,265.972 C128.158,272.187 122.971,278.905 118.468,286.048 C113.998,293.208 110.119,300.729 107.073,308.584 C103.981,316.417 101.622,324.537 100.087,332.812 C98.495,341.078 97.741,349.501 97.758,357.92 C97.735,366.345 98.601,374.766 100.157,383.06 C103.337,399.648 109.686,415.646 118.671,430.185 C116.216,427.03 112.168,420.764 110.451,417.117 M103.644,422.804 C101.42,418.488 99.56,413.983 98.037,409.399 C97.211,407.681 96.451,405.927 95.665,404.187 C94.908,402.434 94.234,400.642 93.526,398.865 C90.855,391.684 88.828,384.233 87.495,376.642 C87.155,374.732 86.86,372.814 86.608,370.889 C85.87,365.16 85.534,359.371 85.563,353.583 C85.62,345.846 86.38,338.107 87.786,330.492 C89.531,321.426 92.149,312.525 95.644,303.985 C99.181,295.466 103.495,287.262 108.681,279.649 C113.827,272.014 119.773,264.934 126.363,258.553 C128.043,256.988 129.705,255.408 131.439,253.91 C133.192,252.434 134.938,250.953 136.736,249.54 C138.559,248.158 140.381,246.779 142.239,245.454 C142.948,244.978 147.217,242.125 147.95,241.689 C140.644,247.144 133.854,253.228 127.685,259.852 C121.516,266.476 115.969,273.642 111.151,281.264 C106.369,288.901 102.224,296.933 98.965,305.32 C95.661,313.682 93.14,322.355 91.499,331.192 C89.801,340.019 88.996,349.014 89.019,358.008 C89,367.004 89.928,375.995 91.6,384.85 C95.017,402.557 101.817,419.631 111.452,435.112 C109.348,432.407 105.115,425.929 103.644,422.804 M96.835,428.49 C94.703,424.451 92.886,420.245 91.344,415.978 C90.396,414.091 89.521,412.165 88.615,410.255 C87.742,408.328 86.966,406.354 86.146,404.401 C83.061,396.501 80.706,388.285 79.145,379.899 C78.745,377.792 78.398,375.673 78.101,373.545 C77.226,367.214 76.807,360.814 76.805,354.411 C76.821,345.854 77.642,337.294 79.197,328.871 C81.049,319.243 83.829,309.792 87.536,300.719 C91.287,291.671 95.867,282.955 101.366,274.865 C106.824,266.75 113.132,259.224 120.122,252.433 C121.908,250.772 123.667,249.088 125.507,247.494 C127.371,245.927 129.219,244.346 131.125,242.841 C133.063,241.373 134.994,239.902 136.963,238.486 C137.554,238.089 142.412,234.834 143.024,234.47 C135.243,240.246 128.012,246.699 121.443,253.732 C114.874,260.767 108.968,268.38 103.836,276.48 C98.741,284.596 94.33,293.138 90.859,302.054 C87.34,310.948 84.658,320.172 82.911,329.572 C81.106,338.961 80.251,348.528 80.279,358.094 C80.266,367.662 81.254,377.225 83.044,386.64 C86.696,405.465 93.949,423.614 104.233,440.039 C102.479,437.786 98.061,431.095 96.835,428.49 M90.026,434.176 C87.986,430.414 86.213,426.509 84.651,422.558 C83.579,420.504 82.59,418.402 81.564,416.321 C80.576,414.223 79.697,412.067 78.767,409.937 C75.268,401.316 72.585,392.335 70.793,383.158 C70.335,380.85 69.935,378.53 69.593,376.201 C68.581,369.27 68.081,362.257 68.046,355.24 C68.023,345.862 68.903,336.478 70.609,327.25 C72.567,317.059 75.507,307.057 79.428,297.454 C83.393,287.874 88.238,278.65 94.051,270.081 C99.822,261.486 106.492,253.514 113.881,246.314 C115.773,244.557 117.629,242.768 119.576,241.079 C121.549,239.421 123.5,237.74 125.516,236.142 C127.567,234.588 129.606,233.023 131.688,231.517 C132.16,231.2 137.607,227.542 138.096,227.252 C129.842,233.348 122.172,240.17 115.201,247.613 C108.232,255.055 101.966,263.118 96.52,271.695 C91.112,280.29 86.436,289.342 82.751,298.788 C79.019,308.214 76.176,317.989 74.322,327.951 C72.412,337.903 71.506,348.043 71.54,358.18 C71.532,368.319 72.583,378.454 74.489,388.43 C78.376,408.374 86.081,427.598 97.014,444.967 C95.611,443.163 91.007,436.26 90.026,434.176 M83.218,439.862 C81.27,436.377 79.54,432.77 77.958,429.137 C76.763,426.915 75.661,424.64 74.513,422.389 C73.41,420.114 72.429,417.78 71.387,415.474 C67.476,406.132 64.462,396.386 62.441,386.415 C61.925,383.909 61.473,381.389 61.085,378.856 C59.936,371.325 59.355,363.699 59.287,356.069 C59.224,345.872 60.164,335.664 62.02,325.63 C64.085,314.878 67.187,304.323 71.321,294.19 C75.499,284.078 80.61,274.345 86.736,265.297 C92.818,256.223 99.85,247.803 107.64,240.195 C109.638,238.343 111.591,236.449 113.643,234.662 C115.728,232.914 117.781,231.134 119.906,229.444 C122.071,227.802 124.219,226.145 126.411,224.551 C126.766,224.31 132.803,220.25 133.169,220.033 C124.442,226.45 116.33,233.642 108.96,241.494 C101.591,249.344 94.963,257.855 89.206,266.911 C83.484,275.984 78.542,285.546 74.644,295.523 C70.698,305.479 67.694,315.806 65.733,326.33 C63.719,336.845 62.761,347.557 62.8,358.266 C62.797,368.978 63.91,379.684 65.933,390.218 C70.056,411.282 78.214,431.582 89.796,449.893 C88.743,448.541 83.953,441.424 83.218,439.862 M76.409,445.549 C74.553,442.34 72.867,439.034 71.265,435.716 C69.947,433.326 68.732,430.878 67.462,428.457 C66.243,426.009 65.162,423.493 64.008,421.011 C59.684,410.948 56.34,400.435 54.091,389.674 C53.515,386.968 53.011,384.247 52.577,381.512 C51.291,373.38 50.627,365.142 50.527,356.898 C50.426,345.881 51.426,334.85 53.432,324.01 C55.604,312.693 58.867,301.588 63.214,290.925 C67.605,280.283 72.981,270.038 79.42,260.513 C85.817,250.959 93.209,242.094 101.399,234.077 C103.503,232.129 105.554,230.129 107.71,228.247 C109.906,226.407 112.062,224.528 114.295,222.745 C116.574,221.017 118.832,219.266 121.135,217.582 C121.371,217.423 127.997,212.959 128.243,212.814 C119.041,219.552 110.488,227.114 102.719,235.373 C94.949,243.634 87.962,252.593 81.891,262.126 C75.856,271.679 70.648,281.75 66.537,292.26 C62.378,302.746 59.212,313.623 57.145,324.709 C55.023,335.786 54.016,347.071 54.06,358.35 C54.062,369.637 55.236,380.914 57.377,392.009 C61.735,414.191 70.347,435.566 82.577,454.819 C81.876,453.918 76.899,446.59 76.409,445.549 M69.601,451.234 C67.837,448.303 66.195,445.296 64.572,442.296 C63.13,439.738 61.802,437.115 60.412,434.523 C59.077,431.903 57.894,429.207 56.628,426.548 C51.89,415.765 48.218,404.485 45.739,392.932 C45.105,390.027 44.549,387.104 44.069,384.169 C42.646,375.435 41.901,366.584 41.769,357.727 C41.627,345.889 42.687,334.036 44.843,322.389 C47.121,310.512 50.545,298.853 55.107,287.659 C59.712,276.486 65.353,265.733 72.105,255.727 C78.813,245.695 86.569,236.384 95.157,227.956 C97.368,225.913 99.516,223.809 101.779,221.831 C104.083,219.901 106.342,217.922 108.685,216.047 C111.078,214.233 113.444,212.388 115.858,210.614 C115.977,210.534 123.193,205.668 123.314,205.596 C113.64,212.654 104.647,220.585 96.477,229.254 C88.307,237.923 80.96,247.329 74.575,257.342 C68.227,267.373 62.755,277.954 58.429,288.994 C54.057,300.01 50.73,311.441 48.557,323.09 C46.33,334.728 45.271,346.585 45.32,358.438 C45.328,370.295 46.564,382.142 48.821,393.799 C53.415,417.1 62.479,439.55 75.358,459.747 C75.007,459.296 69.847,451.756 69.601,451.234 M385.565,460.742 C392.227,450.232 397.965,439.142 402.503,427.571 C407.089,416.022 410.578,404.042 412.857,391.83 C415.19,379.631 416.299,367.2 416.245,354.775 C416.232,342.346 414.934,329.927 412.56,317.713 C407.731,293.291 398.214,269.765 384.686,248.625 C377.413,238.407 369.272,228.817 360.225,220.171 C351.23,211.478 341.391,203.671 330.883,196.918 C320.365,190.188 309.257,184.371 297.656,179.758 C286.064,175.128 274.02,171.642 261.755,169.35 C249.5,167.011 237.012,165.872 224.53,165.958 C212.045,166.029 199.581,167.393 187.333,169.828 C175.087,172.288 163.081,175.974 151.536,180.79 C139.96,185.546 128.885,191.509 118.388,198.376 C108.239,205.756 98.806,214.058 90.236,223.135 C81.666,232.212 73.959,242.066 67.26,252.558 C60.599,263.068 54.86,274.158 50.323,285.728 C45.736,297.275 42.248,309.258 39.969,321.469 C37.635,333.67 36.525,346.099 36.58,358.524 C36.594,370.953 37.89,383.373 40.265,395.589 C45.094,420.009 54.61,443.534 68.139,464.674 C75.413,474.894 83.554,484.482 92.6,493.129 C101.596,501.822 111.434,509.628 121.941,516.382 C132.462,523.111 143.568,528.928 155.17,533.542 C166.762,538.171 178.805,541.657 191.071,543.951 C203.326,546.288 215.813,547.427 228.295,547.341 C240.78,547.269 253.244,545.907 265.493,543.472 C277.738,541.012 289.745,537.326 301.289,532.51 C312.865,527.754 323.939,521.791 334.437,514.924 C354.737,500.162 372.168,481.722 385.565,460.742 M275.477,428.538 C266.074,434.974 255.407,439.566 244.247,441.908 C233.09,444.264 221.468,444.384 210.253,442.289 C199.038,440.191 188.236,435.879 178.673,429.642 C169.1,423.42 160.794,415.267 154.335,405.844 C147.91,396.399 143.347,385.689 141.041,374.508 C138.718,363.328 138.638,351.697 140.771,340.489 C142.906,329.281 147.255,318.502 153.515,308.972 C159.762,299.432 167.928,291.171 177.347,284.76 C186.772,278.357 197.448,273.803 208.603,271.503 C219.751,269.188 231.351,269.108 242.53,271.236 C253.708,273.366 264.458,277.702 273.963,283.946 C283.479,290.177 291.716,298.319 298.111,307.714 C304.529,317.093 309.11,327.732 311.445,338.863 C313.795,349.989 313.917,361.58 311.827,372.767 C309.735,383.952 305.432,394.725 299.212,404.264 C293.006,413.811 284.875,422.096 275.477,428.538 M305.097,408.113 C308.315,402.87 311.132,397.386 313.323,391.654 C315.561,385.945 317.275,380.031 318.384,374.005 C319.554,367.988 320.104,361.855 320.109,355.725 C320.154,349.587 319.534,343.454 318.446,337.398 C316.207,325.287 311.669,313.589 305.279,302.822 C301.68,297.71 297.596,292.951 293.09,288.644 C288.608,284.312 283.706,280.422 278.469,277.057 C268.011,270.31 256.253,265.588 244.024,263.32 C231.807,260.974 219.139,261.089 206.941,263.558 C200.838,264.783 194.856,266.621 189.102,269.019 C183.336,271.391 177.798,274.335 172.584,277.783 C167.649,281.634 163.06,285.869 158.892,290.451 C154.725,295.03 150.979,299.955 147.728,305.186 C144.51,310.43 141.693,315.913 139.502,321.646 C137.265,327.355 135.55,333.268 134.441,339.296 C133.271,345.311 132.721,351.443 132.717,357.576 C132.672,363.713 133.291,369.847 134.379,375.901 C136.619,388.012 141.155,399.71 147.546,410.477 C151.146,415.588 155.229,420.348 159.735,424.656 C164.217,428.987 169.12,432.876 174.355,436.242 C184.815,442.99 196.571,447.711 208.802,449.979 C221.019,452.327 233.687,452.211 245.885,449.741 C251.988,448.515 257.97,446.679 263.723,444.28 C269.489,441.909 275.027,438.965 280.24,435.516 C290.113,427.815 298.597,418.573 305.097,408.113" fill="#0B0B09"/>
  </g>
</svg>
